<?xml version="1.0" encoding="utf-8"?>
<!-- Generator: Adobe Illustrator 26.0.3, SVG Export Plug-In . SVG Version: 6.00 Build 0)  -->
<svg version="1.1" id="Слой_1" xmlns="http://www.w3.org/2000/svg" xmlns:xlink="http://www.w3.org/1999/xlink" x="0px" y="0px"
	 viewBox="0 0 1432 120" style="enable-background:new 0 0 1432 120;" xml:space="preserve">
<style type="text/css">
	.st0{fill:#111111;}
</style>
<g>
	<rect x="276" y="72" class="st0" width="120" height="24"/>
	<rect x="372" class="st0" width="24" height="120"/>
	<rect x="324" y="72" class="st0" width="24" height="48"/>
</g>
<g>
	<rect x="528" y="72" class="st0" width="96" height="24"/>
	<rect x="576" y="24" class="st0" width="72" height="24"/>
	<rect x="600" y="24" class="st0" width="24" height="96"/>
	<rect x="552" y="72" class="st0" width="24" height="48"/>
</g>
<g>
	<rect x="1032" y="72" class="st0" width="168" height="24"/>
	<rect x="1128" y="72" class="st0" width="24" height="48"/>
	<rect x="1080" y="72" class="st0" width="24" height="48"/>
</g>
<rect x="1332" y="72" class="st0" width="24" height="24"/>
<rect x="1370" y="72" class="st0" width="24" height="24"/>
<rect x="1408" y="72" class="st0" width="24" height="24"/>
<g>
	<rect x="780" y="72" class="st0" width="72" height="24"/>
	<rect x="852" y="48" class="st0" width="48" height="24"/>
	<rect x="804" y="72" class="st0" width="24" height="48"/>
</g>
<g>
	<rect y="72" class="st0" width="144" height="24"/>
	<rect x="24" y="48" class="st0" width="24" height="48"/>
	<rect x="96" y="72" class="st0" width="24" height="48"/>
	<rect x="48" y="72" class="st0" width="24" height="48"/>
	<rect x="72" y="48" class="st0" width="24" height="48"/>
</g>
</svg>
