<?xml version="1.0" encoding="utf-8"?>
<!-- Generator: Adobe Illustrator 26.0.3, SVG Export Plug-In . SVG Version: 6.00 Build 0)  -->
<svg version="1.1" id="Слой_1" xmlns="http://www.w3.org/2000/svg" xmlns:xlink="http://www.w3.org/1999/xlink" x="0px" y="0px"
	 viewBox="0 0 1065.73 113.39" style="enable-background:new 0 0 1065.73 113.39;" xml:space="preserve">
<style type="text/css">
	.st0{fill:#020203;}
</style>
<g>
	<polygon class="st0" points="272.13,0 272.13,28.35 357.17,28.35 357.17,56.69 385.51,56.69 385.51,28.35 385.51,0 	"/>
	<rect x="357.17" y="85.04" class="st0" width="28.35" height="28.35"/>
	<polygon class="st0" points="272.13,85.04 272.13,113.39 300.47,113.39 300.47,85.04 357.17,85.04 357.17,56.69 272.13,56.69 	"/>
</g>
<polygon class="st0" points="0,0 0,28.35 85.04,28.35 85.04,56.69 0,56.69 0,85.04 0,113.39 28.35,113.39 28.35,85.04 85.04,85.04 
	113.39,85.04 113.39,56.69 113.39,28.35 113.39,0 "/>
<polygon class="st0" points="436.54,28.35 521.57,28.35 521.57,0 436.54,0 408.19,0 408.19,28.35 408.19,56.69 408.19,85.04 
	408.19,113.39 521.57,113.39 521.57,85.04 436.54,85.04 436.54,56.69 "/>
<g>
	<rect x="901.42" class="st0" width="28.35" height="85.04"/>
	<polygon class="st0" points="844.72,85.04 844.72,113.39 873.07,113.39 901.42,113.39 901.42,85.04 873.07,85.04 	"/>
	<rect x="816.38" class="st0" width="28.35" height="85.04"/>
</g>
<polygon class="st0" points="221.1,56.69 249.45,56.69 249.45,28.35 221.1,28.35 164.41,28.35 164.41,0 136.06,0 136.06,28.35 
	136.06,56.69 136.06,85.04 136.06,113.39 249.45,113.39 249.45,85.04 164.41,85.04 164.41,56.69 "/>
<polygon class="st0" points="629.29,56.69 657.64,56.69 657.64,28.35 629.29,28.35 572.6,28.35 572.6,0 544.25,0 544.25,28.35 
	544.25,56.69 544.25,85.04 544.25,113.39 657.64,113.39 657.64,85.04 572.6,85.04 572.6,56.69 "/>
<polygon class="st0" points="793.7,28.35 793.7,0 751.18,0 722.83,0 680.31,0 680.31,28.35 722.83,28.35 722.83,85.04 680.31,85.04 
	680.31,113.39 722.83,113.39 751.18,113.39 793.7,113.39 793.7,85.04 751.18,85.04 751.18,28.35 "/>
<polygon class="st0" points="1037.48,56.69 1065.83,56.69 1065.83,28.35 1037.48,28.35 980.79,28.35 980.79,0 952.44,0 
	952.44,28.35 952.44,56.69 952.44,85.04 952.44,113.39 1065.83,113.39 1065.83,85.04 980.79,85.04 980.79,56.69 "/>
<rect x="952.44" y="13.29" class="st0" width="28.35" height="28.35"/>
</svg>
