<?xml version="1.0" encoding="utf-8"?>
<!-- Generator: Adobe Illustrator 26.0.3, SVG Export Plug-In . SVG Version: 6.00 Build 0)  -->
<svg version="1.1" id="Слой_1" xmlns="http://www.w3.org/2000/svg" xmlns:xlink="http://www.w3.org/1999/xlink" x="0px" y="0px"
	 viewBox="0 0 1032.3 100" style="enable-background:new 0 0 1032.3 100;" xml:space="preserve">
<style type="text/css">
	.st0{fill:#111111;}
</style>
<g>
	<path class="st0" d="M683.3,0H500c0,0,0,0,0,0H0v33.3h233.3V100h33.3V33.3h186.2C451,38.5,450,44.2,450,50c0,27.6,22.4,50,50,50
		h183.3c27.6,0,50-22.4,50-50S710.9,0,683.3,0z M683.3,66.7H500c-9.2,0-16.7-7.5-16.7-16.7c0-9.2,7.5-16.7,16.7-16.7h183.3
		c9.2,0,16.7,7.5,16.7,16.7C700,59.2,692.5,66.7,683.3,66.7z"/>
	<path class="st0" d="M982.3,0H749v100h33.3V33.3h200c9.2,0,16.7,7.5,16.7,16.7c0,9.2-7.5,16.7-16.7,16.7h-100v0h-38V100h38v0h100
		c27.6,0,50-22.4,50-50S1009.9,0,982.3,0z"/>
</g>
</svg>
