<?xml version="1.0" encoding="utf-8"?>
<!-- Generator: Adobe Illustrator 26.0.3, SVG Export Plug-In . SVG Version: 6.00 Build 0)  -->
<svg version="1.1" id="Слой_1" xmlns="http://www.w3.org/2000/svg" xmlns:xlink="http://www.w3.org/1999/xlink" x="0px" y="0px"
	 viewBox="0 0 180 180" style="enable-background:new 0 0 180 180;" xml:space="preserve">
<style type="text/css">
	.st0{fill:#FFFFFF;}
	.st1{fill:#1D1D1D;}
</style>
<g>
	<g>
		<polygon class="st0" points="108,144 108,144 72,144 36,144 36,108 36,72 36,36 36,0 0,0 0,36 0,72 0,108 0,144 0,180 36,180 
			72,180 108,180 108,180 144,180 180,180 180,144 144,144 		"/>
	</g>
	<g>
		<polygon class="st0" points="144,0.01 108,0.01 108,36.01 108,72 108,108 144,108 180,108 180,72 180,36.01 180,0.01 		"/>
	</g>
</g>
<polygon class="st1" points="108,108 108,0 36.02,0 36.02,108 36,108 36,144 36.02,144 108,144 180,144 180,108 "/>
</svg>
