<?xml version="1.0" encoding="utf-8"?>
<!-- Generator: Adobe Illustrator 26.0.3, SVG Export Plug-In . SVG Version: 6.00 Build 0)  -->
<svg version="1.1" id="Слой_1" xmlns="http://www.w3.org/2000/svg" xmlns:xlink="http://www.w3.org/1999/xlink" x="0px" y="0px"
	 viewBox="0 0 180 180" style="enable-background:new 0 0 180 180;" xml:space="preserve">
<style type="text/css">
	.st0{fill:#FFFFFF;}
	.st1{fill:#1D1D1D;}
</style>
<g>
	<polygon class="st0" points="661.87,-39.64 625.87,-39.64 589.87,-39.64 553.87,-39.64 517.87,-39.64 517.87,-3.64 517.87,32.36 
		517.87,68.36 517.88,68.36 517.88,140.36 553.88,140.36 589.88,140.36 625.88,140.36 625.88,104.36 589.88,104.36 553.88,104.36 
		553.88,68.36 589.87,68.36 625.87,68.36 661.87,68.36 697.87,68.36 697.87,32.36 697.87,-3.64 697.87,-39.64 	"/>
</g>
<polygon class="st1" points="625.87,68.36 553.87,68.36 553.87,104.36 625.87,104.36 625.87,140.36 697.87,140.36 697.87,104.36 
	697.87,68.36 "/>
<g>
	<polygon class="st0" points="144,108 108,108 72,108 72,108 36,108 0,108 0,144 0,180 36,180 72,180 72,180 108,180 144,180 
		180,180 180,144 180,108 	"/>
</g>
<rect x="36" y="-36" transform="matrix(6.123234e-17 -1 1 6.123234e-17 35.9997 144.0003)" class="st1" width="108" height="180"/>
</svg>
