<?xml version="1.0" encoding="utf-8"?>
<!-- Generator: Adobe Illustrator 26.0.3, SVG Export Plug-In . SVG Version: 6.00 Build 0)  -->
<svg version="1.1" id="Слой_1" xmlns="http://www.w3.org/2000/svg" xmlns:xlink="http://www.w3.org/1999/xlink" x="0px" y="0px"
	 viewBox="0 0 180 180" style="enable-background:new 0 0 180 180;" xml:space="preserve">
<style type="text/css">
	.st0{fill:#FFFFFF;}
	.st1{fill:#FFFFFF;}
</style>
<g>
	<polygon class="st0" points="661.87,-39.64 625.87,-39.64 589.87,-39.64 553.87,-39.64 517.87,-39.64 517.87,-3.64 517.87,32.36 
		517.87,68.36 517.88,68.36 517.88,140.36 553.88,140.36 589.88,140.36 625.88,140.36 625.88,104.36 589.88,104.36 553.88,104.36 
		553.88,68.36 589.87,68.36 625.87,68.36 661.87,68.36 697.87,68.36 697.87,32.36 697.87,-3.64 697.87,-39.64 	"/>
</g>
<polygon class="st1" points="625.87,68.36 553.87,68.36 553.87,104.36 625.87,104.36 625.87,140.36 697.87,140.36 697.87,104.36 
	697.87,68.36 "/>
<rect transform="matrix(-1 -1.224647e-16 1.224647e-16 -1 180 180)" class="st1" width="180" height="180"/>
</svg>
