<?xml version="1.0" encoding="utf-8"?>
<!-- Generator: Adobe Illustrator 26.0.3, SVG Export Plug-In . SVG Version: 6.00 Build 0)  -->
<svg version="1.1" id="Слой_1" xmlns="http://www.w3.org/2000/svg" xmlns:xlink="http://www.w3.org/1999/xlink" x="0px" y="0px"
	 viewBox="0 0 180 180" style="enable-background:new 0 0 180 180;" xml:space="preserve">
<style type="text/css">
	.st0{fill:#FFFFFF;}
	.st1{fill:#1D1D1D;}
</style>
<g>
	<polygon class="st0" points="144,0.01 144,36.01 108,36.01 108,36 72,36 36,36 36,72 36,108 36,144 0,144 0,180 36,180 72,180 
		108,180 108,180 144,180 180,180 180,144 180,108 180,72 180,36.01 180,0.01 	"/>
</g>
<polygon class="st1" points="36,0 0,0 0,144 36,144 36,36 144,36 144,0 "/>
</svg>
